<svg width="37" height="37" viewBox="0 0 37 37" fill="none" xmlns="http://www.w3.org/2000/svg">
<circle cx="18.5" cy="18.5" r="18.5" fill="#F3F3F3"/>
<g clip-path="url(#clip0_1681_1833)">
<path d="M17.5 2.5C17.7652 2.5 18.0196 2.60536 18.2071 2.79289C18.3946 2.98043 18.5 3.23478 18.5 3.5V22.5C18.5 22.7652 18.3946 23.0196 18.2071 23.2071C18.0196 23.3946 17.7652 23.5 17.5 23.5H1.5C1.23478 23.5 0.98043 23.3946 0.792893 23.2071C0.605357 23.0196 0.5 22.7652 0.5 22.5V3.5C0.5 3.23478 0.605357 2.98043 0.792893 2.79289C0.98043 2.60536 1.23478 2.5 1.5 2.5H17.5Z" fill="#FFBC44"/>
<path d="M16 4.5C16.1326 4.5 16.2598 4.55268 16.3536 4.64645C16.4473 4.74021 16.5 4.86739 16.5 5V21C16.5 21.1326 16.4473 21.2598 16.3536 21.3536C16.2598 21.4473 16.1326 21.5 16 21.5H3C2.86739 21.5 2.74021 21.4473 2.64645 21.3536C2.55268 21.2598 2.5 21.1326 2.5 21V5C2.5 4.86739 2.55268 4.74021 2.64645 4.64645C2.74021 4.55268 2.86739 4.5 3 4.5H16Z" fill="white"/>
<path d="M14 6.5C14 6.76522 13.8946 7.01957 13.7071 7.20711C13.5196 7.39464 13.2652 7.5 13 7.5H6C5.73478 7.5 5.48043 7.39464 5.29289 7.20711C5.10536 7.01957 5 6.76522 5 6.5V4.5H14V6.5Z" fill="#E4F1F5"/>
<path d="M11.5 2.5C11.5 1.96957 11.2893 1.46086 10.9142 1.08579C10.5391 0.710714 10.0304 0.5 9.5 0.5C8.96957 0.5 8.46086 0.710714 8.08579 1.08579C7.71071 1.46086 7.5 1.96957 7.5 2.5H5.5V5.5H13.5V2.5H11.5Z" fill="#98B7C0"/>
<path d="M11.5 2.5C11.5 1.96957 11.2893 1.46086 10.9142 1.08579C10.5391 0.710714 10.0304 0.5 9.5 0.5C8.96957 0.5 8.46086 0.710714 8.08579 1.08579C7.71071 1.46086 7.5 1.96957 7.5 2.5H5.5V3.5H13.5V2.5H11.5Z" fill="#E4F1F5"/>
<path d="M17.5 23.5C19.0913 23.5 20.6174 22.8679 21.7426 21.7426C22.8679 20.6174 23.5 19.0913 23.5 17.5C23.5 15.9087 22.8679 14.3826 21.7426 13.2574C20.6174 12.1321 19.0913 11.5 17.5 11.5C15.9087 11.5 14.3826 12.1321 13.2574 13.2574C12.1321 14.3826 11.5 15.9087 11.5 17.5C11.5 19.0913 12.1321 20.6174 13.2574 21.7426C14.3826 22.8679 15.9087 23.5 17.5 23.5Z" fill="#78EB7B"/>
<path d="M21.7435 13.257C20.6182 12.1317 19.0919 11.4995 17.5005 11.4995C15.9091 11.4995 14.3828 12.1317 13.2575 13.257C12.1322 14.3823 11.5 15.9086 11.5 17.5C11.5 19.0915 12.1322 20.6177 13.2575 21.743L21.7435 13.257Z" fill="#C9F7CA"/>
<path d="M10 23.5H1.5C1.23478 23.5 0.98043 23.3946 0.792893 23.2071C0.605357 23.0196 0.5 22.7652 0.5 22.5V3.5C0.5 3.23478 0.605357 2.98043 0.792893 2.79289C0.98043 2.60536 1.23478 2.5 1.5 2.5H3.5" stroke="#191919" stroke-linecap="round" stroke-linejoin="round"/>
<path d="M15.5 2.5H17.5C17.7652 2.5 18.0196 2.60536 18.2071 2.79289C18.3946 2.98043 18.5 3.23478 18.5 3.5V9.5" stroke="#191919" stroke-linecap="round" stroke-linejoin="round"/>
<path d="M11.5 2.5C11.5 1.96957 11.2893 1.46086 10.9142 1.08579C10.5391 0.710714 10.0304 0.5 9.5 0.5C8.96957 0.5 8.46086 0.710714 8.08579 1.08579C7.71071 1.46086 7.5 1.96957 7.5 2.5H5.5V5.5H13.5V2.5H11.5Z" stroke="#191919" stroke-linecap="round" stroke-linejoin="round"/>
<path d="M16.5 9.5V5C16.5 4.86739 16.4473 4.74021 16.3536 4.64645C16.2598 4.55268 16.1326 4.5 16 4.5H13.5" stroke="#191919" stroke-linecap="round" stroke-linejoin="round"/>
<path d="M5.5 4.5H3C2.86739 4.5 2.74021 4.55268 2.64645 4.64645C2.55268 4.74021 2.5 4.86739 2.5 5V21C2.5 21.1326 2.55268 21.2598 2.64645 21.3536C2.74021 21.4473 2.86739 21.5 3 21.5H10" stroke="#191919" stroke-linecap="round" stroke-linejoin="round"/>
<path d="M5.5 8.5H13.5" stroke="#191919" stroke-linecap="round" stroke-linejoin="round"/>
<path d="M5.5 11.5H11.5" stroke="#191919" stroke-linecap="round" stroke-linejoin="round"/>
<path d="M5.5 14.5H9.5" stroke="#191919" stroke-linecap="round" stroke-linejoin="round"/>
<path d="M17.5 23.489C18.2879 23.489 19.0681 23.3338 19.7961 23.0323C20.5241 22.7308 21.1855 22.2888 21.7426 21.7317C22.2998 21.1745 22.7417 20.5131 23.0433 19.7851C23.3448 19.0572 23.5 18.2769 23.5 17.489C23.5 16.7011 23.3448 15.9209 23.0433 15.1929C22.7417 14.465 22.2998 13.8035 21.7426 13.2464C21.1855 12.6892 20.5241 12.2473 19.7961 11.9457C19.0681 11.6442 18.2879 11.489 17.5 11.489C15.9087 11.489 14.3826 12.1212 13.2574 13.2464C12.1321 14.3716 11.5 15.8977 11.5 17.489C11.5 19.0803 12.1321 20.6064 13.2574 21.7317C14.3826 22.8569 15.9087 23.489 17.5 23.489Z" stroke="#191919" stroke-linecap="round" stroke-linejoin="round"/>
<path d="M20.1737 15.739L17.2687 19.613C17.2042 19.6989 17.122 19.7699 17.0277 19.8213C16.9333 19.8727 16.8291 19.9032 16.7219 19.9108C16.6148 19.9183 16.5073 19.9028 16.4066 19.8653C16.306 19.8277 16.2146 19.769 16.1387 19.693L14.6387 18.193" stroke="#191919" stroke-linecap="round" stroke-linejoin="round"/>
</g>
<g clip-path="url(#clip1_1681_1833)">
<path d="M26.5 8.5C26.7652 8.5 27.0196 8.60536 27.2071 8.79289C27.3946 8.98043 27.5 9.23478 27.5 9.5V28.5C27.5 28.7652 27.3946 29.0196 27.2071 29.2071C27.0196 29.3946 26.7652 29.5 26.5 29.5H10.5C10.2348 29.5 9.98043 29.3946 9.79289 29.2071C9.60536 29.0196 9.5 28.7652 9.5 28.5V9.5C9.5 9.23478 9.60536 8.98043 9.79289 8.79289C9.98043 8.60536 10.2348 8.5 10.5 8.5H26.5Z" fill="#FFBC44"/>
<path d="M25 10.5C25.1326 10.5 25.2598 10.5527 25.3536 10.6464C25.4473 10.7402 25.5 10.8674 25.5 11V27C25.5 27.1326 25.4473 27.2598 25.3536 27.3536C25.2598 27.4473 25.1326 27.5 25 27.5H12C11.8674 27.5 11.7402 27.4473 11.6464 27.3536C11.5527 27.2598 11.5 27.1326 11.5 27V11C11.5 10.8674 11.5527 10.7402 11.6464 10.6464C11.7402 10.5527 11.8674 10.5 12 10.5H25Z" fill="white"/>
<path d="M23 12.5C23 12.7652 22.8946 13.0196 22.7071 13.2071C22.5196 13.3946 22.2652 13.5 22 13.5H15C14.7348 13.5 14.4804 13.3946 14.2929 13.2071C14.1054 13.0196 14 12.7652 14 12.5V10.5H23V12.5Z" fill="#E4F1F5"/>
<path d="M20.5 8.5C20.5 7.96957 20.2893 7.46086 19.9142 7.08579C19.5391 6.71071 19.0304 6.5 18.5 6.5C17.9696 6.5 17.4609 6.71071 17.0858 7.08579C16.7107 7.46086 16.5 7.96957 16.5 8.5H14.5V11.5H22.5V8.5H20.5Z" fill="#98B7C0"/>
<path d="M20.5 8.5C20.5 7.96957 20.2893 7.46086 19.9142 7.08579C19.5391 6.71071 19.0304 6.5 18.5 6.5C17.9696 6.5 17.4609 6.71071 17.0858 7.08579C16.7107 7.46086 16.5 7.96957 16.5 8.5H14.5V9.5H22.5V8.5H20.5Z" fill="#E4F1F5"/>
<path d="M26.5 29.5C28.0913 29.5 29.6174 28.8679 30.7426 27.7426C31.8679 26.6174 32.5 25.0913 32.5 23.5C32.5 21.9087 31.8679 20.3826 30.7426 19.2574C29.6174 18.1321 28.0913 17.5 26.5 17.5C24.9087 17.5 23.3826 18.1321 22.2574 19.2574C21.1321 20.3826 20.5 21.9087 20.5 23.5C20.5 25.0913 21.1321 26.6174 22.2574 27.7426C23.3826 28.8679 24.9087 29.5 26.5 29.5Z" fill="#78EB7B"/>
<path d="M30.7435 19.257C29.6182 18.1317 28.0919 17.4995 26.5005 17.4995C24.9091 17.4995 23.3828 18.1317 22.2575 19.257C21.1322 20.3823 20.5 21.9086 20.5 23.5C20.5 25.0915 21.1322 26.6177 22.2575 27.743L30.7435 19.257Z" fill="#C9F7CA"/>
<path d="M19 29.5H10.5C10.2348 29.5 9.98043 29.3946 9.79289 29.2071C9.60536 29.0196 9.5 28.7652 9.5 28.5V9.5C9.5 9.23478 9.60536 8.98043 9.79289 8.79289C9.98043 8.60536 10.2348 8.5 10.5 8.5H12.5" stroke="#191919" stroke-width="0.5" stroke-linecap="round" stroke-linejoin="round"/>
<path d="M24.5 8.5H26.5C26.7652 8.5 27.0196 8.60536 27.2071 8.79289C27.3946 8.98043 27.5 9.23478 27.5 9.5V15.5" stroke="#191919" stroke-width="0.5" stroke-linecap="round" stroke-linejoin="round"/>
<path d="M20.5 8.5C20.5 7.96957 20.2893 7.46086 19.9142 7.08579C19.5391 6.71071 19.0304 6.5 18.5 6.5C17.9696 6.5 17.4609 6.71071 17.0858 7.08579C16.7107 7.46086 16.5 7.96957 16.5 8.5H14.5V11.5H22.5V8.5H20.5Z" stroke="#191919" stroke-width="0.5" stroke-linecap="round" stroke-linejoin="round"/>
<path d="M25.5 15.5V11C25.5 10.8674 25.4473 10.7402 25.3536 10.6464C25.2598 10.5527 25.1326 10.5 25 10.5H22.5" stroke="#191919" stroke-width="0.5" stroke-linecap="round" stroke-linejoin="round"/>
<path d="M14.5 10.5H12C11.8674 10.5 11.7402 10.5527 11.6464 10.6464C11.5527 10.7402 11.5 10.8674 11.5 11V27C11.5 27.1326 11.5527 27.2598 11.6464 27.3536C11.7402 27.4473 11.8674 27.5 12 27.5H19" stroke="#191919" stroke-width="0.5" stroke-linecap="round" stroke-linejoin="round"/>
<path d="M14.5 14.5H22.5" stroke="#191919" stroke-linecap="round" stroke-linejoin="round"/>
<path d="M14.5 17.5H20.5" stroke="#191919" stroke-linecap="round" stroke-linejoin="round"/>
<path d="M14.5 20.5H18.5" stroke="#191919" stroke-linecap="round" stroke-linejoin="round"/>
<path d="M26.5 29.489C27.2879 29.489 28.0681 29.3338 28.7961 29.0323C29.5241 28.7308 30.1855 28.2888 30.7426 27.7317C31.2998 27.1745 31.7417 26.5131 32.0433 25.7851C32.3448 25.0572 32.5 24.2769 32.5 23.489C32.5 22.7011 32.3448 21.9209 32.0433 21.1929C31.7417 20.465 31.2998 19.8035 30.7426 19.2464C30.1855 18.6892 29.5241 18.2473 28.7961 17.9457C28.0681 17.6442 27.2879 17.489 26.5 17.489C24.9087 17.489 23.3826 18.1212 22.2574 19.2464C21.1321 20.3716 20.5 21.8977 20.5 23.489C20.5 25.0803 21.1321 26.6064 22.2574 27.7317C23.3826 28.8569 24.9087 29.489 26.5 29.489Z" stroke="#191919" stroke-linecap="round" stroke-linejoin="round"/>
<path d="M29.1737 21.739L26.2687 25.613C26.2042 25.6989 26.122 25.7699 26.0277 25.8213C25.9333 25.8727 25.8291 25.9032 25.7219 25.9108C25.6148 25.9183 25.5073 25.9028 25.4066 25.8653C25.306 25.8277 25.2146 25.769 25.1387 25.693L23.6387 24.193" stroke="#191919" stroke-linecap="round" stroke-linejoin="round"/>
</g>
<defs>
<clipPath id="clip0_1681_1833">
<rect width="24" height="24" fill="white"/>
</clipPath>
<clipPath id="clip1_1681_1833">
<rect width="24" height="24" fill="white" transform="translate(9 6)"/>
</clipPath>
</defs>
</svg>
